<?xml version="1.0" encoding="UTF-8"?>
<!DOCTYPE svg PUBLIC "-//W3C//DTD SVG 1.1//EN" "http://www.w3.org/Graphics/SVG/1.1/DTD/svg11.dtd">
<svg xmlns="http://www.w3.org/2000/svg" version="1.1" width="274px" height="194px" style="shape-rendering:geometricPrecision; text-rendering:geometricPrecision; image-rendering:optimizeQuality; fill-rule:evenodd; clip-rule:evenodd" xmlns:xlink="http://www.w3.org/1999/xlink">
<g><path style="opacity:0.936" fill="#fdfdfd" d="M 104.5,13.5 C 109.163,14.4417 113.829,15.775 118.5,17.5C 119.107,17.3764 119.44,17.0431 119.5,16.5C 125.386,23.1206 127.219,30.7873 125,39.5C 121.423,44.3794 116.589,47.3794 110.5,48.5C 111.779,50.1461 113.445,51.3128 115.5,52C 118.036,52.1862 120.369,52.6862 122.5,53.5C 124.993,55.5838 127.66,55.9171 130.5,54.5C 171.43,61.2494 191.263,85.2494 190,126.5C 187.796,139.583 181.962,150.583 172.5,159.5C 171.624,159.631 170.957,159.298 170.5,158.5C 171.127,157.583 171.461,156.583 171.5,155.5C 171.992,153.181 172.992,151.181 174.5,149.5C 176.293,147.574 177.293,145.241 177.5,142.5C 178.897,136.929 179.564,131.262 179.5,125.5C 180.222,125.918 180.722,126.584 181,127.5C 181.941,125.011 181.441,123.011 179.5,121.5C 179.296,118.482 178.963,115.482 178.5,112.5C 178.658,107.424 176.992,102.757 173.5,98.5C 170.129,95.1294 167.129,91.4627 164.5,87.5C 164.938,87.5654 165.272,87.3988 165.5,87C 161.676,83.9209 157.676,81.0876 153.5,78.5C 152.893,78.6236 152.56,78.9569 152.5,79.5C 132.675,69.4969 113.675,70.9969 95.5,84C 93,87.8333 89.8333,91 86,93.5C 75.7845,107.457 73.1178,122.791 78,139.5C 80.6552,145.634 83.4886,151.634 86.5,157.5C 87.1355,159.795 88.4689,161.461 90.5,162.5C 91.7803,164.106 91.2803,165.106 89,165.5C 63.0015,143.476 58.3348,117.476 75,87.5C 81.9349,78.0619 89.4349,69.0619 97.5,60.5C 93.7513,55.3378 90.2513,50.0044 87,44.5C 84.5938,33.0517 87.7604,23.5517 96.5,16C 98.9088,14.2932 101.575,13.4598 104.5,13.5 Z M 104.5,27.5 C 107.885,26.7896 110.219,27.9563 111.5,31C 110.056,33.4485 108.222,35.6152 106,37.5C 104.686,47.7997 102.852,47.633 100.5,37C 100.583,33.2378 101.916,30.0712 104.5,27.5 Z"/></g>
<g><path style="opacity:0.565" fill="#f4f4f4" d="M 104.5,13.5 C 109.819,13.1202 114.819,14.1202 119.5,16.5C 119.44,17.0431 119.107,17.3764 118.5,17.5C 113.829,15.775 109.163,14.4417 104.5,13.5 Z"/></g>
<g><path style="opacity:0.516" fill="#f1f1f1" d="M 122.5,53.5 C 125.127,54.0916 127.794,54.4249 130.5,54.5C 127.66,55.9171 124.993,55.5838 122.5,53.5 Z"/></g>
<g><path style="opacity:0.847" fill="#f3f3f3" d="M 152.5,79.5 C 152.56,78.9569 152.893,78.6236 153.5,78.5C 157.676,81.0876 161.676,83.9209 165.5,87C 165.272,87.3988 164.938,87.5654 164.5,87.5C 160.5,84.8333 156.5,82.1667 152.5,79.5 Z"/></g>
<g><path style="opacity:0.591" fill="#f5f5f5" d="M 173.5,98.5 C 176.992,102.757 178.658,107.424 178.5,112.5C 176.829,107.827 175.163,103.161 173.5,98.5 Z"/></g>
<g><path style="opacity:0.809" fill="#fcfcfc" d="M 112.5,113.5 C 118.962,114.805 120.795,118.472 118,124.5C 112.518,128.921 108.352,127.921 105.5,121.5C 105.899,119.803 106.399,118.137 107,116.5C 108.876,115.391 110.709,114.391 112.5,113.5 Z"/></g>
<g><path style="opacity:0.8" fill="#fdfdfd" d="M 142.5,114.5 C 148.722,113.099 152.389,115.433 153.5,121.5C 153.141,125.356 150.974,127.356 147,127.5C 142.596,127.262 140.429,124.928 140.5,120.5C 140.611,118.286 141.278,116.286 142.5,114.5 Z"/></g>
<g><path style="opacity:0.576" fill="#f2f2f2" d="M 179.5,121.5 C 181.441,123.011 181.941,125.011 181,127.5C 180.722,126.584 180.222,125.918 179.5,125.5C 179.5,124.167 179.5,122.833 179.5,121.5 Z"/></g>
<g><path style="opacity:0.349" fill="#f1f1f1" d="M 177.5,142.5 C 177.293,145.241 176.293,147.574 174.5,149.5C 174.707,146.759 175.707,144.426 177.5,142.5 Z"/></g>
<g><path style="opacity:0.683" fill="#fbfbfb" d="M 140.5,153.5 C 141.833,153.5 143.167,153.5 144.5,153.5C 144.919,156.325 143.919,158.491 141.5,160C 132.944,163.844 124.277,164.177 115.5,161C 112.847,159.345 110.514,157.345 108.5,155C 115.375,155.774 122.209,156.941 129,158.5C 133.293,157.768 137.126,156.101 140.5,153.5 Z"/></g>
<g><path style="opacity:0.62" fill="#f0f0f0" d="M 86.5,157.5 C 88.543,158.579 89.8763,160.246 90.5,162.5C 88.4689,161.461 87.1355,159.795 86.5,157.5 Z"/></g>
<g><path style="opacity:0.495" fill="#f5f5f5" d="M 171.5,155.5 C 171.461,156.583 171.127,157.583 170.5,158.5C 170.957,159.298 171.624,159.631 172.5,159.5C 171.263,162.467 169.263,163.467 166.5,162.5C 167.453,159.57 169.12,157.237 171.5,155.5 Z"/></g>
</svg>
